<svg width="1063" height="110" viewBox="0 0 1063 110" fill="none" xmlns="http://www.w3.org/2000/svg">
<path d="M15.7054 46.3268L76.2207 42.7347L49.0739 96.9385L15.7054 46.3268Z" fill="white"/>
<path d="M165.04 91.3067L110.457 64.9313L160.59 30.8484L165.04 91.3067Z" fill="white"/>
<path d="M165.04 91.3067L110.457 64.9313L160.59 30.8484L165.04 91.3067Z" fill="white"/>
<path d="M427.3 85.5669L372.717 59.1916L422.85 25.1087L427.3 85.5669Z" fill="white"/>
<path d="M872.3 77.5669L817.717 51.1916L867.85 17.1087L872.3 77.5669Z" fill="white"/>
<path d="M561.696 73.3803L601.049 27.2676L621.307 84.4043L561.696 73.3803Z" fill="white"/>
<circle cx="237" cy="77" r="25" fill="white"/>
<circle cx="944" cy="66" r="25" fill="white"/>
<circle cx="316" cy="39" r="25" fill="white"/>
<circle cx="682" cy="66" r="25" fill="white"/>
<rect x="482.151" y="34.2136" width="17" height="64" transform="rotate(-32.2694 482.151 34.2136)" fill="white"/>
<rect x="483.214" y="80.8494" width="17" height="64" transform="rotate(-122.269 483.214 80.8494)" fill="white"/>
<rect x="998.985" y="64.9846" width="17" height="64" transform="rotate(-90 998.985 64.9846)" fill="white"/>
<rect x="1038.98" y="88.9846" width="17" height="64" transform="rotate(-180 1038.98 88.9846)" fill="white"/>
<rect x="747.659" y="42.1846" width="17" height="64" transform="rotate(-19.2456 747.659 42.1846)" fill="white"/>
<rect x="738.185" y="87.8601" width="17" height="64" transform="rotate(-109.246 738.185 87.8601)" fill="white"/>
</svg>

